<?xml version="1.0" encoding="UTF-8"?>
<!DOCTYPE svg PUBLIC "-//W3C//DTD SVG 1.1//EN" "http://www.w3.org/Graphics/SVG/1.1/DTD/svg11.dtd">
<svg xmlns="http://www.w3.org/2000/svg" version="1.1" width="200px" height="200px" style="shape-rendering:geometricPrecision; text-rendering:geometricPrecision; image-rendering:optimizeQuality; fill-rule:evenodd; clip-rule:evenodd" xmlns:xlink="http://www.w3.org/1999/xlink">
<g><path style="opacity:1" fill="#4a493b" d="M 122.5,55.5 C 125.082,55.0254 127.082,55.6921 128.5,57.5C 125.99,57.9465 123.99,57.2798 122.5,55.5 Z"/></g>
<g><path style="opacity:1" fill="#9a8f86" d="M 81.5,52.5 C 78.2557,54.1119 74.589,55.1119 70.5,55.5C 71.1272,56.4168 71.4606,57.4168 71.5,58.5C 71.1667,58.5 70.8333,58.5 70.5,58.5C 69.5,58.5 68.5,58.5 67.5,58.5C 67.3653,56.4458 68.032,54.7791 69.5,53.5C 73.5191,53.3542 77.5191,53.0209 81.5,52.5 Z"/></g>
<g><path style="opacity:1" fill="#515148" d="M 159.5,58.5 C 165.482,57.8084 167.816,60.1417 166.5,65.5C 165.761,65.631 165.094,65.4643 164.5,65C 163.773,63.6012 163.273,62.1012 163,60.5C 161.698,59.9152 160.531,59.2485 159.5,58.5 Z"/></g>
<g><path style="opacity:1" fill="#3c3332" d="M 69.5,53.5 C 68.032,54.7791 67.3653,56.4458 67.5,58.5C 68.5,58.5 69.5,58.5 70.5,58.5C 70.5,58.8333 70.5,59.1667 70.5,59.5C 69.1667,59.5 67.8333,59.5 66.5,59.5C 66.6896,70.8565 66.3563,82.1898 65.5,93.5C 60.0701,93.5167 54.7368,94.1834 49.5,95.5C 48.2113,96.5009 46.8779,96.3342 45.5,95C 50.7667,94.1856 55.7667,92.6856 60.5,90.5C 56.6893,89.2624 56.6893,88.5958 60.5,88.5C 60.5875,85.4017 60.0875,85.0684 59,87.5C 58.5,87 58,86.5 57.5,86C 58.6872,84.9805 59.6872,83.8139 60.5,82.5C 59.8555,81.2679 59.6888,79.9346 60,78.5C 56.2754,80.2993 52.4421,81.466 48.5,82C 49.1667,80.6667 50.1667,79.6667 51.5,79C 49.6992,78.6827 49.3659,78.016 50.5,77C 53.9606,75.7695 57.2939,74.2695 60.5,72.5C 60.1667,72.1667 59.8333,71.8333 59.5,71.5C 55.898,73.6033 52.2313,74.6033 48.5,74.5C 52.5041,72.8323 56.5041,71.1656 60.5,69.5C 59.624,68.7492 58.624,68.2492 57.5,68C 60.5534,66.4192 61.22,64.0859 59.5,61C 52.362,61.9351 45.6954,64.2685 39.5,68C 37.8876,68.7203 36.3876,68.5536 35,67.5C 33.5662,82.4417 33.0662,97.4417 33.5,112.5C 33.1667,112.5 32.8333,112.5 32.5,112.5C 32.1829,97.4516 32.5163,82.4516 33.5,67.5C 43.9397,62.9611 54.273,58.1278 64.5,53C 66.265,52.3603 67.9317,52.5269 69.5,53.5 Z"/></g>
<g><path style="opacity:1" fill="#342c2d" d="M 49.5,95.5 C 53.017,96.8375 56.517,96.5041 60,94.5C 60.4828,95.448 60.6495,96.448 60.5,97.5C 57.5832,98.2911 54.7499,98.2911 52,97.5C 51.5172,98.448 51.3505,99.448 51.5,100.5C 54.4284,100.148 57.2617,99.4817 60,98.5C 60.4828,99.448 60.6495,100.448 60.5,101.5C 56.7267,101.263 53.0601,101.763 49.5,103C 53.0915,103.789 56.5915,103.622 60,102.5C 60.1667,102.833 60.3333,103.167 60.5,103.5C 56.8084,104.564 53.1417,105.73 49.5,107C 53.188,106.546 56.8547,106.713 60.5,107.5C 55.9587,108.95 51.292,109.783 46.5,110C 51.2879,110.291 55.9545,110.458 60.5,110.5C 52.7074,112.921 44.7074,113.921 36.5,113.5C 37.9488,111.836 39.9488,111.002 42.5,111C 40.5273,110.505 38.5273,110.338 36.5,110.5C 36.978,105.651 36.978,100.651 36.5,95.5C 41.8333,95.1667 41.8333,94.8333 36.5,94.5C 36.5644,87.5547 36.5644,80.8881 36.5,74.5C 35.5615,95.4951 34.7282,116.495 34,137.5C 33.5003,129.173 33.3336,120.84 33.5,112.5C 33.0662,97.4417 33.5662,82.4417 35,67.5C 36.3876,68.5536 37.8876,68.7203 39.5,68C 45.6954,64.2685 52.362,61.9351 59.5,61C 61.22,64.0859 60.5534,66.4192 57.5,68C 58.624,68.2492 59.624,68.7492 60.5,69.5C 56.5041,71.1656 52.5041,72.8323 48.5,74.5C 52.2313,74.6033 55.898,73.6033 59.5,71.5C 59.8333,71.8333 60.1667,72.1667 60.5,72.5C 57.2939,74.2695 53.9606,75.7695 50.5,77C 49.3659,78.016 49.6992,78.6827 51.5,79C 50.1667,79.6667 49.1667,80.6667 48.5,82C 52.4421,81.466 56.2754,80.2993 60,78.5C 59.6888,79.9346 59.8555,81.2679 60.5,82.5C 59.6872,83.8139 58.6872,84.9805 57.5,86C 58,86.5 58.5,87 59,87.5C 60.0875,85.0684 60.5875,85.4017 60.5,88.5C 56.6893,88.5958 56.6893,89.2624 60.5,90.5C 55.7667,92.6856 50.7667,94.1856 45.5,95C 46.8779,96.3342 48.2113,96.5009 49.5,95.5 Z"/></g>
<g><path style="opacity:1" fill="#ebddbe" d="M 70.5,59.5 C 70.5,59.1667 70.5,58.8333 70.5,58.5C 70.8333,58.5 71.1667,58.5 71.5,58.5C 74.7131,58.19 77.7131,58.5233 80.5,59.5C 77.7531,59.1866 75.0865,59.52 72.5,60.5C 99.5058,61.8754 126.506,63.3754 153.5,65C 155.744,65.0496 157.411,65.8829 158.5,67.5C 151.967,65.2844 145.3,64.9511 138.5,66.5C 122.665,64.0423 106.665,63.3757 90.5,64.5C 86.8333,64.5 83.1667,64.5 79.5,64.5C 82.977,63.6773 86.6437,63.1773 90.5,63C 84.7963,62.3127 79.1296,62.4793 73.5,63.5C 73.5,70.8333 73.5,78.1667 73.5,85.5C 85.0037,85.6501 96.5037,85.9835 108,86.5C 112.833,86.1667 117.667,85.8333 122.5,85.5C 122,84.5 121.5,83.5 121,82.5C 118.984,84.6082 116.817,84.9416 114.5,83.5C 116.099,83.7678 117.432,83.4345 118.5,82.5C 119.29,81.5987 120.29,80.9321 121.5,80.5C 122.82,81.9418 124.486,82.6085 126.5,82.5C 128.292,82.634 129.958,82.3007 131.5,81.5C 132.167,81.5 132.5,81.8333 132.5,82.5C 132.649,83.552 132.483,84.552 132,85.5C 131.667,85.1667 131.333,84.8333 131,84.5C 128.853,85.1125 126.686,85.7792 124.5,86.5C 135.814,87.4988 147.147,87.8322 158.5,87.5C 158.5,83.1667 158.5,78.8333 158.5,74.5C 159.487,79.3054 159.821,84.3054 159.5,89.5C 130.496,88.6578 101.496,87.6578 72.5,86.5C 72.8238,77.2776 72.1571,68.2776 70.5,59.5 Z"/></g>
<g><path style="opacity:1" fill="#f3eed5" d="M 122.5,55.5 C 123.99,57.2798 125.99,57.9465 128.5,57.5C 138.832,57.8749 149.165,58.2082 159.5,58.5C 160.531,59.2485 161.698,59.9152 163,60.5C 163.273,62.1012 163.773,63.6012 164.5,65C 165.094,65.4643 165.761,65.631 166.5,65.5C 166.5,69.1667 166.5,72.8333 166.5,76.5C 166.821,82.0262 166.488,87.3595 165.5,92.5C 137.89,93.4812 110.223,93.1479 82.5,91.5C 77.9824,91.4354 73.6491,90.7687 69.5,89.5C 68.1408,90.6243 67.1408,91.9577 66.5,93.5C 66.1667,93.5 65.8333,93.5 65.5,93.5C 66.3563,82.1898 66.6896,70.8565 66.5,59.5C 67.8333,59.5 69.1667,59.5 70.5,59.5C 72.1571,68.2776 72.8238,77.2776 72.5,86.5C 101.496,87.6578 130.496,88.6578 159.5,89.5C 160.287,91.1042 161.62,91.7709 163.5,91.5C 162.582,82.2067 162.248,72.8734 162.5,63.5C 135.153,62.3881 107.82,61.0548 80.5,59.5C 77.7131,58.5233 74.7131,58.19 71.5,58.5C 71.4606,57.4168 71.1272,56.4168 70.5,55.5C 74.589,55.1119 78.2557,54.1119 81.5,52.5C 95.7093,46.8171 109.376,47.8171 122.5,55.5 Z"/></g>
<g><path style="opacity:1" fill="#f6ecd0" d="M 79.5,64.5 C 79.5,65.5 79.5,66.5 79.5,67.5C 83.1667,67.5 86.8333,67.5 90.5,67.5C 90.5,66.5 90.5,65.5 90.5,64.5C 106.665,63.3757 122.665,64.0423 138.5,66.5C 145.3,64.9511 151.967,65.2844 158.5,67.5C 158.5,69.8333 158.5,72.1667 158.5,74.5C 158.5,78.8333 158.5,83.1667 158.5,87.5C 147.147,87.8322 135.814,87.4988 124.5,86.5C 126.686,85.7792 128.853,85.1125 131,84.5C 131.333,84.8333 131.667,85.1667 132,85.5C 132.483,84.552 132.649,83.552 132.5,82.5C 133.935,84.4011 135.602,84.7345 137.5,83.5C 138.609,83.4431 139.609,83.1098 140.5,82.5C 142.228,83.379 144.061,84.0457 146,84.5C 147.07,84.472 147.903,84.1386 148.5,83.5C 149.812,82.8549 150.812,81.8549 151.5,80.5C 149.995,79.1585 149.328,77.4918 149.5,75.5C 147.067,75.2729 145.401,76.2729 144.5,78.5C 143.5,78.5 142.5,78.5 141.5,78.5C 141.737,77.209 141.404,76.209 140.5,75.5C 137.495,74.3354 135.495,75.3354 134.5,78.5C 133.508,78.3284 132.842,78.6618 132.5,79.5C 130.744,78.4479 130.077,76.7812 130.5,74.5C 127.687,74.0246 125.687,75.0246 124.5,77.5C 122.517,77.8432 121.183,77.1765 120.5,75.5C 119.252,73.31 117.586,72.9766 115.5,74.5C 112.734,75.2318 110.068,75.2318 107.5,74.5C 105.348,72.1882 103.348,72.5215 101.5,75.5C 98.9411,77.7933 98.9411,80.2933 101.5,83C 105.563,83.9821 108.729,82.8154 111,79.5C 111.949,81.0931 113.115,82.4264 114.5,83.5C 116.817,84.9416 118.984,84.6082 121,82.5C 121.5,83.5 122,84.5 122.5,85.5C 117.667,85.8333 112.833,86.1667 108,86.5C 96.5037,85.9835 85.0037,85.6501 73.5,85.5C 73.5,78.1667 73.5,70.8333 73.5,63.5C 79.1296,62.4793 84.7963,62.3127 90.5,63C 86.6437,63.1773 82.977,63.6773 79.5,64.5 Z"/></g>
<g><path style="opacity:1" fill="#ac9881" d="M 134.5,78.5 C 134.75,80.674 135.75,82.3406 137.5,83.5C 135.602,84.7345 133.935,84.4011 132.5,82.5C 132.5,81.8333 132.167,81.5 131.5,81.5C 131.833,80.8333 132.167,80.1667 132.5,79.5C 132.842,78.6618 133.508,78.3284 134.5,78.5 Z"/></g>
<g><path style="opacity:1" fill="#27201d" d="M 148.5,83.5 C 145.703,83.0334 144.369,81.3667 144.5,78.5C 145.401,76.2729 147.067,75.2729 149.5,75.5C 149.328,77.4918 149.995,79.1585 151.5,80.5C 150.812,81.8549 149.812,82.8549 148.5,83.5 Z"/></g>
<g><path style="opacity:1" fill="#a49281" d="M 140.5,75.5 C 141.404,76.209 141.737,77.209 141.5,78.5C 142.5,78.5 143.5,78.5 144.5,78.5C 144.369,81.3667 145.703,83.0334 148.5,83.5C 147.903,84.1386 147.07,84.472 146,84.5C 144.061,84.0457 142.228,83.379 140.5,82.5C 140.5,80.1667 140.5,77.8333 140.5,75.5 Z"/></g>
<g><path style="opacity:1" fill="#a38f7a" d="M 120.5,75.5 C 121.183,77.1765 122.517,77.8432 124.5,77.5C 124.392,79.5138 125.058,81.1805 126.5,82.5C 124.486,82.6085 122.82,81.9418 121.5,80.5C 121.179,78.9519 120.179,78.2852 118.5,78.5C 118.285,76.8212 118.952,75.8212 120.5,75.5 Z"/></g>
<g><path style="opacity:1" fill="#c5a98e" d="M 88.5,75.5 C 88.5,78.8333 90.1667,80.5 93.5,80.5C 92.3409,82.3769 90.6742,82.8769 88.5,82C 85.9588,79.6068 85.9588,77.4401 88.5,75.5 Z"/></g>
<g><path style="opacity:1" fill="#201715" d="M 156.5,79.5 C 156.5,80.5 156.5,81.5 156.5,82.5C 155.209,82.7373 154.209,82.404 153.5,81.5C 153.821,79.9519 154.821,79.2852 156.5,79.5 Z"/></g>
<g><path style="opacity:1" fill="#251e1e" d="M 140.5,75.5 C 140.5,77.8333 140.5,80.1667 140.5,82.5C 139.609,83.1098 138.609,83.4431 137.5,83.5C 135.75,82.3406 134.75,80.674 134.5,78.5C 135.495,75.3354 137.495,74.3354 140.5,75.5 Z"/></g>
<g><path style="opacity:1" fill="#776e61" d="M 156.5,79.5 C 154.821,79.2852 153.821,79.9519 153.5,81.5C 152.209,80.4583 152.209,79.2917 153.5,78C 154.998,77.4153 155.998,77.9153 156.5,79.5 Z"/></g>
<g><path style="opacity:1" fill="#231e1a" d="M 120.5,75.5 C 118.952,75.8212 118.285,76.8212 118.5,78.5C 120.179,78.2852 121.179,78.9519 121.5,80.5C 120.29,80.9321 119.29,81.5987 118.5,82.5C 113.499,81.1581 112.499,78.4915 115.5,74.5C 117.586,72.9766 119.252,73.31 120.5,75.5 Z"/></g>
<g><path style="opacity:1" fill="#201b19" d="M 94.5,74.5 C 93.7109,74.7828 93.0442,75.2828 92.5,76C 94.0629,76.7589 95.0629,77.9256 95.5,79.5C 95.1583,80.3382 94.4916,80.6716 93.5,80.5C 90.1667,80.5 88.5,78.8333 88.5,75.5C 89.7058,72.8609 91.7058,72.0276 94.5,73C 95.7383,73.69 95.7383,74.19 94.5,74.5 Z"/></g>
<g><path style="opacity:1" fill="#80776b" d="M 94.5,74.5 C 94.9038,75.7564 95.5705,76.9231 96.5,78C 96.4301,78.7648 96.0967,79.2648 95.5,79.5C 95.0629,77.9256 94.0629,76.7589 92.5,76C 93.0442,75.2828 93.7109,74.7828 94.5,74.5 Z"/></g>
<g><path style="opacity:1" fill="#342d22" d="M 77.5,75.5 C 79.1172,76.038 80.7839,76.3713 82.5,76.5C 82.5,77.5 82.5,78.5 82.5,79.5C 79.0504,80.2436 77.3838,78.9103 77.5,75.5 Z"/></g>
<g><path style="opacity:1" fill="#d2c2a9" d="M 107.5,74.5 C 110.068,75.2318 112.734,75.2318 115.5,74.5C 112.499,78.4915 113.499,81.1581 118.5,82.5C 117.432,83.4345 116.099,83.7678 114.5,83.5C 113.115,82.4264 111.949,81.0931 111,79.5C 108.729,82.8154 105.563,83.9821 101.5,83C 98.9411,80.2933 98.9411,77.7933 101.5,75.5C 101.541,81.2351 103.874,82.5684 108.5,79.5C 106.335,78.1196 106.001,76.4529 107.5,74.5 Z"/></g>
<g><path style="opacity:1" fill="#282120" d="M 132.5,79.5 C 132.167,80.1667 131.833,80.8333 131.5,81.5C 129.958,82.3007 128.292,82.634 126.5,82.5C 125.058,81.1805 124.392,79.5138 124.5,77.5C 125.687,75.0246 127.687,74.0246 130.5,74.5C 130.077,76.7812 130.744,78.4479 132.5,79.5 Z"/></g>
<g><path style="opacity:1" fill="#211a18" d="M 107.5,74.5 C 106.001,76.4529 106.335,78.1196 108.5,79.5C 103.874,82.5684 101.541,81.2351 101.5,75.5C 103.348,72.5215 105.348,72.1882 107.5,74.5 Z"/></g>
<g><path style="opacity:1" fill="#4a4236" d="M 79.5,64.5 C 83.1667,64.5 86.8333,64.5 90.5,64.5C 90.5,65.5 90.5,66.5 90.5,67.5C 86.8333,67.5 83.1667,67.5 79.5,67.5C 79.5,66.5 79.5,65.5 79.5,64.5 Z"/></g>
<g><path style="opacity:1" fill="#d6bd95" d="M 80.5,59.5 C 107.82,61.0548 135.153,62.3881 162.5,63.5C 162.248,72.8734 162.582,82.2067 163.5,91.5C 161.62,91.7709 160.287,91.1042 159.5,89.5C 159.821,84.3054 159.487,79.3054 158.5,74.5C 158.5,72.1667 158.5,69.8333 158.5,67.5C 157.411,65.8829 155.744,65.0496 153.5,65C 126.506,63.3754 99.5058,61.8754 72.5,60.5C 75.0865,59.52 77.7531,59.1866 80.5,59.5 Z"/></g>
<g><path style="opacity:1" fill="#566346" d="M 112.5,56.5 C 105.535,55.6591 98.5352,55.3257 91.5,55.5C 93.3972,54.1952 95.7305,53.5286 98.5,53.5C 103.552,53.2667 108.218,54.2667 112.5,56.5 Z"/></g>
<g><path style="opacity:1" fill="#bbad86" d="M 112.5,56.5 C 108.218,54.2667 103.552,53.2667 98.5,53.5C 95.7305,53.5286 93.3972,54.1952 91.5,55.5C 90.0222,55.762 88.6888,55.4287 87.5,54.5C 97.0364,50.2378 106.37,50.7378 115.5,56C 114.552,56.4828 113.552,56.6495 112.5,56.5 Z"/></g>
<g><path style="opacity:1" fill="#81896e" d="M 166.5,76.5 C 167.489,81.9753 167.822,87.642 167.5,93.5C 166.508,93.6716 165.842,93.3382 165.5,92.5C 166.488,87.3595 166.821,82.0262 166.5,76.5 Z"/></g>
<g><path style="opacity:1" fill="#393231" d="M 165.5,92.5 C 165.842,93.3382 166.508,93.6716 167.5,93.5C 167.5,105.833 167.5,118.167 167.5,130.5C 166.833,118.66 166.167,106.66 165.5,94.5C 164.682,97.1071 164.182,99.7737 164,102.5C 163.014,103.171 161.847,103.171 160.5,102.5C 160.5,102.167 160.5,101.833 160.5,101.5C 160.414,100.504 160.748,99.6708 161.5,99C 151.978,99.1049 142.645,98.2716 133.5,96.5C 132.175,116.065 132.175,135.565 133.5,155C 113.513,156.024 93.5128,156.691 73.5,157C 72.1416,157.934 70.8083,158.768 69.5,159.5C 68.5,159.5 67.5,159.5 66.5,159.5C 66.5,158.167 66.5,156.833 66.5,155.5C 66.5,147.167 66.5,138.833 66.5,130.5C 66.5,118.167 66.5,105.833 66.5,93.5C 67.1408,91.9577 68.1408,90.6243 69.5,89.5C 73.6491,90.7687 77.9824,91.4354 82.5,91.5C 110.223,93.1479 137.89,93.4812 165.5,92.5 Z"/></g>
<g><path style="opacity:1" fill="#efe4cb" d="M 119.5,108.5 C 126.124,119.274 126.124,129.941 119.5,140.5C 120.425,135.914 121.425,131.414 122.5,127C 122.272,123.131 121.772,119.298 121,115.5C 120.667,118.5 120.333,121.5 120,124.5C 118.87,126.933 117.704,129.266 116.5,131.5C 113.779,131.963 111.112,132.629 108.5,133.5C 109.5,131.5 110.5,129.5 111.5,127.5C 113.017,127.489 114.184,126.823 115,125.5C 119.369,117.11 117.536,110.443 109.5,105.5C 98.0858,101.932 91.0858,105.932 88.5,117.5C 88.19,120.713 88.5233,123.713 89.5,126.5C 89.4021,128.553 90.0687,130.22 91.5,131.5C 91.7329,133.062 92.3995,134.395 93.5,135.5C 89.7622,134.791 86.4289,133.124 83.5,130.5C 83.1928,131.887 83.1928,133.554 83.5,135.5C 81.9054,133.889 80.7388,131.889 80,129.5C 79.5014,125.848 79.3347,122.182 79.5,118.5C 79.832,114.185 81.4987,110.519 84.5,107.5C 96.4275,96.6424 108.094,96.9757 119.5,108.5 Z"/></g>
<g><path style="opacity:1" fill="#d5c0a4" d="M 111.5,127.5 C 111.5,126.167 111.5,124.833 111.5,123.5C 113.875,110.698 108.542,106.198 95.5,110C 93.0332,112.524 90.6998,115.024 88.5,117.5C 91.0858,105.932 98.0858,101.932 109.5,105.5C 117.536,110.443 119.369,117.11 115,125.5C 114.184,126.823 113.017,127.489 111.5,127.5 Z"/></g>
<g><path style="opacity:1" fill="#2f2728" d="M 65.5,93.5 C 65.8333,93.5 66.1667,93.5 66.5,93.5C 66.5,105.833 66.5,118.167 66.5,130.5C 65.9334,136.807 64.7667,143.14 63,149.5C 62.5291,147.754 61.8624,146.087 61,144.5C 60.6121,145.428 59.9454,146.095 59,146.5C 52.1747,145.695 45.3414,144.861 38.5,144C 43.0287,143.321 47.5287,143.487 52,144.5C 53.8882,144.204 55.7216,143.704 57.5,143C 50.4352,142.661 43.4352,141.828 36.5,140.5C 49.7677,139.177 49.7677,138.51 36.5,138.5C 35.5537,133.801 35.5537,129.134 36.5,124.5C 44.5,124.167 44.5,123.833 36.5,123.5C 36.5,120.167 36.5,116.833 36.5,113.5C 44.7074,113.921 52.7074,112.921 60.5,110.5C 55.9545,110.458 51.2879,110.291 46.5,110C 51.292,109.783 55.9587,108.95 60.5,107.5C 56.8547,106.713 53.188,106.546 49.5,107C 53.1417,105.73 56.8084,104.564 60.5,103.5C 60.3333,103.167 60.1667,102.833 60,102.5C 56.5915,103.622 53.0915,103.789 49.5,103C 53.0601,101.763 56.7267,101.263 60.5,101.5C 60.6495,100.448 60.4828,99.448 60,98.5C 57.2617,99.4817 54.4284,100.148 51.5,100.5C 51.3505,99.448 51.5172,98.448 52,97.5C 54.7499,98.2911 57.5832,98.2911 60.5,97.5C 60.6495,96.448 60.4828,95.448 60,94.5C 56.517,96.5041 53.017,96.8375 49.5,95.5C 54.7368,94.1834 60.0701,93.5167 65.5,93.5 Z"/></g>
<g><path style="opacity:1" fill="#1f1919" d="M 84.5,107.5 C 81.4987,110.519 79.832,114.185 79.5,118.5C 77.1969,127.102 78.6969,135.102 84,142.5C 85.451,144.464 87.2843,145.797 89.5,146.5C 89.9731,147.906 90.9731,148.573 92.5,148.5C 95.0169,149.973 97.8502,150.64 101,150.5C 103.033,150.494 104.866,150.161 106.5,149.5C 112.187,148.483 116.52,145.483 119.5,140.5C 126.124,129.941 126.124,119.274 119.5,108.5C 120.329,107.668 121.162,108.001 122,109.5C 127.193,121.223 126.526,132.556 120,143.5C 107.316,155.436 94.6494,155.436 82,143.5C 75.1148,132.002 74.7814,120.336 81,108.5C 82,107.5 83,106.5 84,105.5C 84.4643,106.094 84.631,106.761 84.5,107.5 Z"/></g>
<g><path style="opacity:1" fill="#160e13" d="M 110.5,120.5 C 110.5,122.5 110.5,124.5 110.5,126.5C 108.473,126.338 106.473,126.505 104.5,127C 103.944,127.383 103.611,127.883 103.5,128.5C 102.733,129.172 102.066,130.005 101.5,131C 97.9304,131.262 94.5971,131.429 91.5,131.5C 90.0687,130.22 89.4021,128.553 89.5,126.5C 89.6865,114.809 95.3532,110.642 106.5,114C 108.221,115.944 109.554,118.11 110.5,120.5 Z"/></g>
<g><path style="opacity:1" fill="#5e5356" d="M 97.5,119.5 C 101.938,118.425 103.938,120.092 103.5,124.5C 99.4399,125.152 97.4399,123.485 97.5,119.5 Z"/></g>
<g><path style="opacity:1" fill="#a9907a" d="M 111.5,123.5 C 111.737,122.209 111.404,121.209 110.5,120.5C 109.554,118.11 108.221,115.944 106.5,114C 95.3532,110.642 89.6865,114.809 89.5,126.5C 88.5233,123.713 88.19,120.713 88.5,117.5C 90.6998,115.024 93.0332,112.524 95.5,110C 108.542,106.198 113.875,110.698 111.5,123.5 Z"/></g>
<g><path style="opacity:1" fill="#766b62" d="M 110.5,120.5 C 111.404,121.209 111.737,122.209 111.5,123.5C 111.5,124.833 111.5,126.167 111.5,127.5C 110.5,129.5 109.5,131.5 108.5,133.5C 108.167,134.5 107.5,135.167 106.5,135.5C 104.681,133.528 103.681,131.195 103.5,128.5C 103.611,127.883 103.944,127.383 104.5,127C 106.473,126.505 108.473,126.338 110.5,126.5C 110.5,124.5 110.5,122.5 110.5,120.5 Z"/></g>
<g><path style="opacity:1" fill="#5b5251" d="M 103.5,128.5 C 103.681,131.195 104.681,133.528 106.5,135.5C 102.167,138.167 97.8333,138.167 93.5,135.5C 92.3995,134.395 91.7329,133.062 91.5,131.5C 94.5971,131.429 97.9304,131.262 101.5,131C 102.066,130.005 102.733,129.172 103.5,128.5 Z"/></g>
<g><path style="opacity:1" fill="#f7f0d4" d="M 119.5,140.5 C 116.52,145.483 112.187,148.483 106.5,149.5C 101.797,149.563 97.1304,149.229 92.5,148.5C 90.9731,148.573 89.9731,147.906 89.5,146.5C 86.5317,143.379 84.5317,139.712 83.5,135.5C 83.1928,133.554 83.1928,131.887 83.5,130.5C 86.4289,133.124 89.7622,134.791 93.5,135.5C 97.8333,138.167 102.167,138.167 106.5,135.5C 107.5,135.167 108.167,134.5 108.5,133.5C 111.112,132.629 113.779,131.963 116.5,131.5C 117.704,129.266 118.87,126.933 120,124.5C 120.333,121.5 120.667,118.5 121,115.5C 121.772,119.298 122.272,123.131 122.5,127C 121.425,131.414 120.425,135.914 119.5,140.5 Z"/></g>
<g><path style="opacity:1" fill="#cec2ae" d="M 79.5,118.5 C 79.3347,122.182 79.5014,125.848 80,129.5C 80.7388,131.889 81.9054,133.889 83.5,135.5C 84.5317,139.712 86.5317,143.379 89.5,146.5C 87.2843,145.797 85.451,144.464 84,142.5C 78.6969,135.102 77.1969,127.102 79.5,118.5 Z"/></g>
<g><path style="opacity:1" fill="#2e2525" d="M 167.5,130.5 C 167.5,134.167 167.5,137.833 167.5,141.5C 167.756,145.269 167.423,148.936 166.5,152.5C 165.21,151.942 164.377,150.942 164,149.5C 163.831,142.144 163.331,134.811 162.5,127.5C 161.808,128.025 161.308,128.692 161,129.5C 152.864,128.819 144.697,128.152 136.5,127.5C 135.335,136.482 135.168,145.482 136,154.5C 136.75,153.874 137.584,153.374 138.5,153C 137.518,145.253 137.185,137.42 137.5,129.5C 145.019,129.175 152.352,129.508 159.5,130.5C 153.005,132.82 146.338,133.153 139.5,131.5C 139.171,137.537 139.504,143.537 140.5,149.5C 142.809,148.025 144.976,146.358 147,144.5C 148.458,145.747 149.958,145.747 151.5,144.5C 152.696,144.846 152.696,145.346 151.5,146C 154.726,146.885 157.726,148.219 160.5,150C 153.5,150.333 146.5,150.667 139.5,151C 147.012,151.822 154.345,151.655 161.5,150.5C 162.774,151.189 162.774,152.023 161.5,153C 165.5,154 165.5,155 161.5,156C 163.167,156.333 164.833,156.667 166.5,157C 164.236,157.236 162.069,157.736 160,158.5C 159.228,157.151 158.061,156.318 156.5,156C 149.5,155.333 142.5,155.333 135.5,156C 134.975,156.692 134.308,157.192 133.5,157.5C 128.772,155.983 123.939,156.316 119,158.5C 110.53,157.189 102.03,157.356 93.5,159C 103.675,159.17 113.675,159.67 123.5,160.5C 107.839,161.047 92.1723,161.381 76.5,161.5C 76.7373,162.791 76.404,163.791 75.5,164.5C 75.4226,163.25 74.756,162.417 73.5,162C 73.8333,161.667 74.1667,161.333 74.5,161C 72.9751,159.991 71.3084,159.491 69.5,159.5C 70.8083,158.768 72.1416,157.934 73.5,157C 93.5128,156.691 113.513,156.024 133.5,155C 132.175,135.565 132.175,116.065 133.5,96.5C 142.645,98.2716 151.978,99.1049 161.5,99C 160.748,99.6708 160.414,100.504 160.5,101.5C 160.167,101.5 159.833,101.5 159.5,101.5C 152.432,100.818 145.266,100.151 138,99.5C 137.333,102.5 137.333,105.5 138,108.5C 138.278,109.416 138.778,110.082 139.5,110.5C 139.335,114.182 139.501,117.848 140,121.5C 141.491,119.996 143.324,119.163 145.5,119C 145.167,118.667 144.833,118.333 144.5,118C 145.416,117.626 146.25,117.126 147,116.5C 149.854,116.23 152.687,116.73 155.5,118C 155.167,118.333 154.833,118.667 154.5,119C 156.421,119.36 158.088,120.194 159.5,121.5C 160.496,115.202 160.83,108.868 160.5,102.5C 161.847,103.171 163.014,103.171 164,102.5C 164.182,99.7737 164.682,97.1071 165.5,94.5C 166.167,106.66 166.833,118.66 167.5,130.5 Z"/></g>
<g><path style="opacity:1" fill="#0d080a" d="M 159.5,101.5 C 159.833,101.5 160.167,101.5 160.5,101.5C 160.5,101.833 160.5,102.167 160.5,102.5C 160.83,108.868 160.496,115.202 159.5,121.5C 158.088,120.194 156.421,119.36 154.5,119C 154.833,118.667 155.167,118.333 155.5,118C 152.687,116.73 149.854,116.23 147,116.5C 146.25,117.126 145.416,117.626 144.5,118C 144.833,118.333 145.167,118.667 145.5,119C 143.324,119.163 141.491,119.996 140,121.5C 139.501,117.848 139.335,114.182 139.5,110.5C 139.5,107.833 139.5,105.167 139.5,102.5C 146.255,102.793 152.922,102.46 159.5,101.5 Z"/></g>
<g><path style="opacity:1" fill="#513f49" d="M 146.5,107.5 C 150.241,106.599 152.241,107.932 152.5,111.5C 149.031,112.113 147.031,110.779 146.5,107.5 Z"/></g>
<g><path style="opacity:1" fill="#483b3c" d="M 159.5,101.5 C 152.922,102.46 146.255,102.793 139.5,102.5C 139.5,105.167 139.5,107.833 139.5,110.5C 138.778,110.082 138.278,109.416 138,108.5C 137.333,105.5 137.333,102.5 138,99.5C 145.266,100.151 152.432,100.818 159.5,101.5 Z"/></g>
<g><path style="opacity:1" fill="#979584" d="M 167.5,141.5 C 168.833,147.167 168.833,152.833 167.5,158.5C 167.795,156.265 167.461,154.265 166.5,152.5C 167.423,148.936 167.756,145.269 167.5,141.5 Z"/></g>
<g><path style="opacity:1" fill="#2d2828" d="M 36.5,113.5 C 36.5,116.833 36.5,120.167 36.5,123.5C 44.5,123.833 44.5,124.167 36.5,124.5C 35.5537,129.134 35.5537,133.801 36.5,138.5C 49.7677,138.51 49.7677,139.177 36.5,140.5C 43.4352,141.828 50.4352,142.661 57.5,143C 55.7216,143.704 53.8882,144.204 52,144.5C 47.5287,143.487 43.0287,143.321 38.5,144C 45.3414,144.861 52.1747,145.695 59,146.5C 59.9454,146.095 60.6121,145.428 61,144.5C 61.8624,146.087 62.5291,147.754 63,149.5C 64.7667,143.14 65.9334,136.807 66.5,130.5C 66.5,138.833 66.5,147.167 66.5,155.5C 64.9582,154.699 63.2915,154.366 61.5,154.5C 61.5,159.167 61.5,163.833 61.5,168.5C 60.6942,167.003 60.0276,165.336 59.5,163.5C 55.2808,160.143 52.2808,160.81 50.5,165.5C 50.5,164.167 50.5,162.833 50.5,161.5C 47.2139,160.793 43.8806,160.46 40.5,160.5C 40.9628,163.221 41.6295,165.888 42.5,168.5C 40.9731,168.573 39.9731,167.906 39.5,166.5C 39.4191,163.487 38.0858,161.487 35.5,160.5C 33.7446,159.928 32.0779,159.094 30.5,158C 32.1178,142.933 32.7845,127.767 32.5,112.5C 32.8333,112.5 33.1667,112.5 33.5,112.5C 33.3336,120.84 33.5003,129.173 34,137.5C 34.7282,116.495 35.5615,95.4951 36.5,74.5C 36.5644,80.8881 36.5644,87.5547 36.5,94.5C 41.8333,94.8333 41.8333,95.1667 36.5,95.5C 36.978,100.651 36.978,105.651 36.5,110.5C 38.5273,110.338 40.5273,110.505 42.5,111C 39.9488,111.002 37.9488,111.836 36.5,113.5 Z"/></g>
<g><path style="opacity:1" fill="#9f9282" d="M 92.5,148.5 C 97.1304,149.229 101.797,149.563 106.5,149.5C 104.866,150.161 103.033,150.494 101,150.5C 97.8502,150.64 95.0169,149.973 92.5,148.5 Z"/></g>
<g><path style="opacity:1" fill="#221c1d" d="M 166.5,152.5 C 167.461,154.265 167.795,156.265 167.5,158.5C 167.158,159.338 166.492,159.672 165.5,159.5C 163.5,159.5 161.5,159.5 159.5,159.5C 158.964,162.901 157.631,165.901 155.5,168.5C 152.117,170.228 149.45,169.561 147.5,166.5C 148.513,161.186 146.346,158.852 141,159.5C 138.705,159.547 136.871,160.213 135.5,161.5C 135.313,163.564 134.813,165.564 134,167.5C 130.063,167.046 126.23,166.713 122.5,166.5C 123.239,166.631 123.906,166.464 124.5,166C 123.594,164.301 123.261,162.467 123.5,160.5C 113.675,159.67 103.675,159.17 93.5,159C 102.03,157.356 110.53,157.189 119,158.5C 123.939,156.316 128.772,155.983 133.5,157.5C 134.308,157.192 134.975,156.692 135.5,156C 142.5,155.333 149.5,155.333 156.5,156C 158.061,156.318 159.228,157.151 160,158.5C 162.069,157.736 164.236,157.236 166.5,157C 164.833,156.667 163.167,156.333 161.5,156C 165.5,155 165.5,154 161.5,153C 162.774,152.023 162.774,151.189 161.5,150.5C 161.932,143.576 161.266,136.909 159.5,130.5C 152.352,129.508 145.019,129.175 137.5,129.5C 137.185,137.42 137.518,145.253 138.5,153C 137.584,153.374 136.75,153.874 136,154.5C 135.168,145.482 135.335,136.482 136.5,127.5C 144.697,128.152 152.864,128.819 161,129.5C 161.308,128.692 161.808,128.025 162.5,127.5C 163.331,134.811 163.831,142.144 164,149.5C 164.377,150.942 165.21,151.942 166.5,152.5 Z"/></g>
<g><path style="opacity:1" fill="#0d090a" d="M 159.5,130.5 C 161.266,136.909 161.932,143.576 161.5,150.5C 154.345,151.655 147.012,151.822 139.5,151C 146.5,150.667 153.5,150.333 160.5,150C 157.726,148.219 154.726,146.885 151.5,146C 152.696,145.346 152.696,144.846 151.5,144.5C 149.958,145.747 148.458,145.747 147,144.5C 144.976,146.358 142.809,148.025 140.5,149.5C 139.504,143.537 139.171,137.537 139.5,131.5C 146.338,133.153 153.005,132.82 159.5,130.5 Z"/></g>
<g><path style="opacity:1" fill="#63565e" d="M 146.5,136.5 C 148.977,136.051 150.977,136.717 152.5,138.5C 150.405,139.081 148.572,139.081 147,138.5C 146.536,137.906 146.369,137.239 146.5,136.5 Z"/></g>
<g><path style="opacity:1" fill="#130c11" d="M 66.5,155.5 C 66.5,156.833 66.5,158.167 66.5,159.5C 67.5,159.5 68.5,159.5 69.5,159.5C 71.3084,159.491 72.9751,159.991 74.5,161C 74.1667,161.333 73.8333,161.667 73.5,162C 74.756,162.417 75.4226,163.25 75.5,164.5C 74.722,166.225 74.3886,167.891 74.5,169.5C 72.3333,169.833 70.1667,170.167 68,170.5C 65.3897,170.467 63.223,169.8 61.5,168.5C 61.5,163.833 61.5,159.167 61.5,154.5C 63.2915,154.366 64.9582,154.699 66.5,155.5 Z"/></g>
<g><path style="opacity:1" fill="#6b764e" d="M 147.5,166.5 C 146.594,165.644 145.927,163.977 145.5,161.5C 142.163,160.334 138.83,160.334 135.5,161.5C 136.871,160.213 138.705,159.547 141,159.5C 146.346,158.852 148.513,161.186 147.5,166.5 Z"/></g>
<g><path style="opacity:1" fill="#040306" d="M 50.5,165.5 C 50.5858,166.496 50.2524,167.329 49.5,168C 47.1902,168.497 44.8568,168.663 42.5,168.5C 41.6295,165.888 40.9628,163.221 40.5,160.5C 43.8806,160.46 47.2139,160.793 50.5,161.5C 50.5,162.833 50.5,164.167 50.5,165.5 Z"/></g>
<g><path style="opacity:0.4" fill="#8fa949" d="M 121.5,161.5 C 122.833,162.167 122.833,162.167 121.5,161.5 Z"/></g>
<g><path style="opacity:1" fill="#727b51" d="M 35.5,160.5 C 38.0858,161.487 39.4191,163.487 39.5,166.5C 37.9899,164.678 36.6566,162.678 35.5,160.5 Z"/></g>
<g><path style="opacity:1" fill="#444431" d="M 165.5,159.5 C 160.996,160.518 158.996,163.518 159.5,168.5C 158.167,168.5 156.833,168.5 155.5,168.5C 157.631,165.901 158.964,162.901 159.5,159.5C 161.5,159.5 163.5,159.5 165.5,159.5 Z"/></g>
<g><path style="opacity:0.133" fill="#8cab5a" d="M 122.5,166.5 C 121.833,165.167 121.833,165.167 122.5,166.5 Z"/></g>
<g><path style="opacity:0.133" fill="#7c8b51" d="M 121.5,166.5 C 120.399,167.598 119.066,167.765 117.5,167C 118.793,166.51 120.127,166.343 121.5,166.5 Z"/></g>
<g><path style="opacity:0.096" fill="#7f8d4b" d="M 37.5,169.5 C 35.8151,170.844 34.1484,170.677 32.5,169C 34.265,168.36 35.9317,168.527 37.5,169.5 Z"/></g>
<g><path style="opacity:0.071" fill="#7f8c4b" d="M 37.5,168.5 C 38.8333,169.167 38.8333,169.167 37.5,168.5 Z"/></g>
<g><path style="opacity:0.088" fill="#6c6f40" d="M 133.5,170.5 C 133.897,169.475 134.563,169.308 135.5,170C 134.906,170.464 134.239,170.631 133.5,170.5 Z"/></g>
<g><path style="opacity:0.088" fill="#818c4d" d="M 41.5,171.5 C 41.8966,170.475 42.5632,170.308 43.5,171C 42.9056,171.464 42.2389,171.631 41.5,171.5 Z"/></g>
<g><path style="opacity:0.292" fill="#818b53" d="M 108.5,171.5 C 110.288,170.378 112.288,170.211 114.5,171C 112.527,171.495 110.527,171.662 108.5,171.5 Z"/></g>
</svg>
